<svg xmlns="http://www.w3.org/2000/svg" width="960" height="720" viewBox="0 0 960 720" role="img" aria-label="Workspace illustration">
  <defs>
    <linearGradient id="g2" x1="0" x2="1" y1="0" y2="1">
      <stop offset="0" stop-color="#1dd6b8"/>
      <stop offset="1" stop-color="#7c5cff"/>
    </linearGradient>
  </defs>
  <rect width="960" height="720" rx="36" fill="#0f1730"/>
  <rect x="90" y="110" width="780" height="380" rx="28" fill="#101a33" stroke="rgba(234,240,255,0.14)" stroke-width="2"/>
  <rect x="120" y="140" width="720" height="40" rx="14" fill="rgba(234,240,255,0.06)"/>
  <circle cx="146" cy="160" r="10" fill="rgba(124,92,255,0.70)"/>
  <circle cx="176" cy="160" r="10" fill="rgba(29,214,184,0.70)"/>
  <circle cx="206" cy="160" r="10" fill="rgba(234,240,255,0.14)"/>
  <rect x="140" y="210" width="300" height="220" rx="18" fill="rgba(234,240,255,0.06)" stroke="rgba(234,240,255,0.12)" stroke-width="2"/>
  <rect x="480" y="210" width="340" height="220" rx="18" fill="rgba(234,240,255,0.06)" stroke="rgba(234,240,255,0.12)" stroke-width="2"/>
  <path d="M165 405 L210 340 L260 360 L320 290 L400 325" fill="none" stroke="url(#g2)" stroke-width="6" stroke-linecap="round" stroke-linejoin="round"/>
  <rect x="510" y="380" width="48" height="40" rx="10" fill="rgba(124,92,255,0.45)"/>
  <rect x="568" y="350" width="48" height="70" rx="10" fill="rgba(29,214,184,0.35)"/>
  <rect x="626" y="320" width="48" height="100" rx="10" fill="rgba(124,92,255,0.35)"/>
  <rect x="684" y="290" width="48" height="130" rx="10" fill="rgba(29,214,184,0.28)"/>
  <rect x="90" y="520" width="780" height="110" rx="28" fill="rgba(234,240,255,0.06)" stroke="rgba(234,240,255,0.12)" stroke-width="2"/>
  <rect x="130" y="560" width="420" height="16" rx="8" fill="rgba(234,240,255,0.12)"/>
  <rect x="130" y="590" width="520" height="16" rx="8" fill="rgba(234,240,255,0.10)"/>
</svg>
